<svg xmlns="http://www.w3.org/2000/svg" width="15.949" height="17.239" viewBox="0 0 15.949 17.239">
  <path id="Office_map" data-name="Office map" d="M14.348,8.826l3.4-3.4-3.4-3.4H9.776V.376A.377.377,0,0,0,9.4,0H8.044a.377.377,0,0,0-.376.376V2.023H1.98A.179.179,0,0,0,1.8,2.2V8.648a.179.179,0,0,0,.179.179H7.668v1.335h-2.1l-1.7,1.7,1.7,1.7h2.1v3.3a.378.378,0,0,0,.376.377H9.4a.378.378,0,0,0,.376-.377v-3.3h2.6a.179.179,0,0,0,.179-.179V10.341a.179.179,0,0,0-.179-.179h-2.6V8.827Z" transform="translate(-1.801)" fill="#a5a4bf"/>
</svg>
