<svg xmlns="http://www.w3.org/2000/svg" width="16" height="14.663" viewBox="0 0 16 14.663">
  <g id="Structure" transform="translate(0 0)">
    <path id="Path_826" data-name="Path 826" d="M3.954,66.137H.334A.334.334,0,0,0,0,66.471v3.62a.334.334,0,0,0,.334.334h3.62a.334.334,0,0,0,.334-.334v-3.62A.334.334,0,0,0,3.954,66.137Z" transform="translate(0 -55.763)" fill="#a5a4bf"/>
    <path id="Path_827" data-name="Path 827" d="M38.682,66.137h-3.62a.334.334,0,0,0-.334.334v3.62a.334.334,0,0,0,.334.334h3.62a.334.334,0,0,0,.334-.334v-3.62A.334.334,0,0,0,38.682,66.137Z" transform="translate(-28.929 -55.763)" fill="#a5a4bf"/>
    <path id="Path_828" data-name="Path 828" d="M74.1,66.137h-3.62a.334.334,0,0,0-.334.334v3.62a.334.334,0,0,0,.334.334H74.1a.334.334,0,0,0,.334-.334v-3.62A.334.334,0,0,0,74.1,66.137Z" transform="translate(-58.431 -55.763)" fill="#a5a4bf"/>
    <path id="Path_829" data-name="Path 829" d="M35.406,8.294h3.62a.334.334,0,0,0,.334-.334V4.34a.334.334,0,0,0-.334-.334h-3.62a.334.334,0,0,0-.334.334V7.96A.334.334,0,0,0,35.406,8.294Z" transform="translate(-29.216 -4.006)" fill="#a5a4bf"/>
    <path id="Path_830" data-name="Path 830" d="M7.847,39.782h.685a.334.334,0,0,0,.334-.334V38.039h4.716v1.413a.334.334,0,0,0,.334.334H14.6a.334.334,0,0,0,.334-.334V38.039h4.716v1.411a.334.334,0,0,0,.334.334h.685A.334.334,0,0,0,21,39.449v-2.43a.334.334,0,0,0-.334-.334H14.935v-.463a.334.334,0,0,0-.334-.334h-.685a.334.334,0,0,0-.334.334v.463H7.847a.334.334,0,0,0-.334.334v2.429A.334.334,0,0,0,7.847,39.782Z" transform="translate(-6.259 -30.565)" fill="#a5a4bf"/>
  </g>
</svg>
