<svg id="TaskTracker" xmlns="http://www.w3.org/2000/svg" width="16" height="12.571" viewBox="0 0 16 12.571">
  <path id="Path_820" data-name="Path 820" d="M15.428,347.177H.571a.55.55,0,0,0-.4.17.55.55,0,0,0-.17.4v2.285a.55.55,0,0,0,.17.4.55.55,0,0,0,.4.17H15.428a.58.58,0,0,0,.572-.572v-2.285a.579.579,0,0,0-.572-.572Zm-.571,2.286H9.143V348.32h5.714v1.143Z" transform="translate(0 -338.034)" fill="#a5a4bf"/>
  <path id="Path_821" data-name="Path 821" d="M15.428,201H.571a.549.549,0,0,0-.4.17.549.549,0,0,0-.17.4v2.286a.549.549,0,0,0,.17.4.55.55,0,0,0,.4.17H15.428a.58.58,0,0,0,.572-.572v-2.286a.579.579,0,0,0-.572-.571Zm-.572,2.286H5.714v-1.143h9.143Z" transform="translate(0 -196.429)" fill="#a5a4bf"/>
  <path id="Path_822" data-name="Path 822" d="M15.83,54.989a.55.55,0,0,0-.4-.17H.571a.55.55,0,0,0-.4.17.55.55,0,0,0-.17.4v2.286a.549.549,0,0,0,.17.4.55.55,0,0,0,.4.17H15.428A.579.579,0,0,0,16,57.676V55.39A.55.55,0,0,0,15.83,54.989ZM14.857,57.1H11.428V55.962h3.428Z" transform="translate(0 -54.819)" fill="#a5a4bf"/>
</svg>
