<svg xmlns="http://www.w3.org/2000/svg" xmlns:xlink="http://www.w3.org/1999/xlink" width="16" height="16" viewBox="0 0 16 16">
  <defs>
    <clipPath id="clip-path">
      <rect width="16" height="16" fill="none"/>
    </clipPath>
  </defs>
  <g id="charts" transform="translate(0 0)" clip-path="url(#clip-path)">
    <path id="Path_96" data-name="Path 96" d="M9,0H7A.945.945,0,0,0,6,1V15a.945.945,0,0,0,1,1H9a.945.945,0,0,0,1-1V1A.945.945,0,0,0,9,0Z" fill="#a5a4bf"/>
    <path id="Path_97" data-name="Path 97" d="M3,10H1a.945.945,0,0,0-1,1v4a.945.945,0,0,0,1,1H3a.945.945,0,0,0,1-1V11A.945.945,0,0,0,3,10Z" fill="#a5a4bf"/>
    <path id="Path_98" data-name="Path 98" d="M15,5H13a.945.945,0,0,0-1,1v9a.945.945,0,0,0,1,1h2a.945.945,0,0,0,1-1V6A.945.945,0,0,0,15,5Z" fill="#a5a4bf"/>
  </g>
</svg>
