<svg xmlns="http://www.w3.org/2000/svg" width="16" height="16" viewBox="0 0 16 16">
  <path id="Path_823" data-name="Path 823" d="M15.925,10.653l-.024-.021a4.694,4.694,0,0,0-4.154-.956,4.633,4.633,0,0,0-1.108-4.313A4.633,4.633,0,0,0,6.325,4.255a4.689,4.689,0,0,0-.97-4.17.263.263,0,0,0-.38-.008l-.8.8a.263.263,0,0,0-.012.359,2.492,2.492,0,0,1,.2.253L1.489,4.359a2.524,2.524,0,0,1-.253-.2.263.263,0,0,0-.359.012l-.8.8a.263.263,0,0,0,.008.38,4.689,4.689,0,0,0,4.17.97,4.633,4.633,0,0,0,1.108,4.313,4.633,4.633,0,0,0,4.314,1.108,4.69,4.69,0,0,0,.97,4.17.263.263,0,0,0,.38.008l.8-.8a.263.263,0,0,0,.012-.359,2.5,2.5,0,0,1-.2-.253l2.873-2.873a2.506,2.506,0,0,1,.252.195.263.263,0,0,0,.359-.012l.8-.8h0A.263.263,0,0,0,15.925,10.653ZM4.59,4.587a6.761,6.761,0,0,1-1.96.171L4.761,2.627A6.763,6.763,0,0,1,4.59,4.587Zm1.4,1.4a7.2,7.2,0,0,1,1.838-.182l-2.02,2.02A7.188,7.188,0,0,1,5.993,5.99Zm.54,3.478a2.515,2.515,0,0,1-.364-.458L9.013,6.166a2.59,2.59,0,0,1,.823.823L6.992,9.833A2.512,2.512,0,0,1,6.533,9.468Zm3.479.54a7.2,7.2,0,0,1-1.838.182l2.019-2.019A7.191,7.191,0,0,1,10.012,10.008Zm1.232,3.364a6.764,6.764,0,0,1,.171-1.961,6.754,6.754,0,0,1,1.961-.171Z" transform="translate(-0.002 0)" fill="#a5a4bf"/>
</svg>
