<svg xmlns="http://www.w3.org/2000/svg" width="16" height="15.746" viewBox="0 0 16 15.746">
  <g id="Onboarding" transform="translate(0 0)">
    <path id="Path_831" data-name="Path 831" d="M.54,11.887a.539.539,0,0,0,.54-.54A6.832,6.832,0,0,1,7.9,4.525a6.756,6.756,0,0,1,5.653,3.024l-.613-.234a.532.532,0,0,0-.38.993l1.928.76a.5.5,0,0,0,.409,0,.554.554,0,0,0,.307-.321l.76-1.928a.532.532,0,1,0-.993-.38l-.321.833A7.709,7.709,0,0,0,12.3,4.817a7.864,7.864,0,0,0-9.962.964A7.766,7.766,0,0,0,0,11.346.549.549,0,0,0,.54,11.887Z" transform="translate(0 -3.473)" fill="#a5a4bf"/>
    <path id="Path_832" data-name="Path 832" d="M15.685,204.273a.539.539,0,0,0-.54.54,6.832,6.832,0,0,1-6.821,6.821,6.756,6.756,0,0,1-5.653-3.024l.613.248a.532.532,0,1,0,.38-.993l-1.928-.76a.5.5,0,0,0-.409,0,.554.554,0,0,0-.307.321l-.73,1.914a.532.532,0,1,0,.993.38l.321-.833a7.708,7.708,0,0,0,2.352,2.454,7.875,7.875,0,0,0,12.27-6.529A.549.549,0,0,0,15.685,204.273Z" transform="translate(-0.245 -196.94)" fill="#a5a4bf"/>
    <path id="Path_833" data-name="Path 833" d="M126,245.615h6.792a2.543,2.543,0,0,0-2.542-2.542h-1.724A2.54,2.54,0,0,0,126,245.615Z" transform="translate(-121.399 -234.323)" fill="#a5a4bf"/>
    <circle id="Ellipse_1587" data-name="Ellipse 1587" cx="1.767" cy="1.767" r="1.767" transform="translate(6.223 4.455)" fill="#a5a4bf"/>
  </g>
</svg>
