<svg xmlns="http://www.w3.org/2000/svg" width="16" height="13.547" viewBox="0 0 16 13.547">
  <g id="Questions" transform="translate(0 0)">
    <path id="Path_824" data-name="Path 824" d="M13.354,43.838a.255.255,0,0,0-.116-.029.3.3,0,0,0-.221.1l-.616.616a.289.289,0,0,0-.086.212v2.444a1.544,1.544,0,0,1-1.539,1.539h-8a1.482,1.482,0,0,1-1.087-.452,1.482,1.482,0,0,1-.452-1.087v-8a1.482,1.482,0,0,1,.452-1.087,1.482,1.482,0,0,1,1.087-.452h8a1.709,1.709,0,0,1,.433.058.309.309,0,0,0,.086.019.3.3,0,0,0,.221-.1l.471-.471a.3.3,0,0,0,.086-.279.292.292,0,0,0-.173-.221,2.649,2.649,0,0,0-1.126-.241h-8a2.669,2.669,0,0,0-1.958.813A2.669,2.669,0,0,0,0,39.172v8a2.669,2.669,0,0,0,.813,1.958,2.669,2.669,0,0,0,1.958.813h8a2.776,2.776,0,0,0,2.771-2.771v-3.06A.28.28,0,0,0,13.354,43.838Z" transform="translate(0 -36.401)" fill="#a5a4bf"/>
    <path id="Path_825" data-name="Path 825" d="M86.671,56.245l-1.058-1.058a.767.767,0,0,0-1.1,0L78.29,61.412l-2.53-2.53a.767.767,0,0,0-1.1,0L73.6,59.94a.767.767,0,0,0,0,1.1l4.137,4.137a.767.767,0,0,0,1.1,0l7.832-7.832a.767.767,0,0,0,0-1.1Z" transform="translate(-70.901 -54.331)" fill="#a5a4bf"/>
  </g>
</svg>
