<svg xmlns="http://www.w3.org/2000/svg" width="16" height="12.571" viewBox="0 0 16 12.571">
  <g id="Services" transform="translate(0 0)">
    <path id="Path_834" data-name="Path 834" d="M1.714,201a1.653,1.653,0,0,0-1.214.5,1.725,1.725,0,0,0,0,2.429,1.654,1.654,0,0,0,1.214.5,1.654,1.654,0,0,0,1.214-.5,1.724,1.724,0,0,0,0-2.429A1.653,1.653,0,0,0,1.714,201Z" transform="translate(0 -196.427)" fill="#a5a4bf"/>
    <path id="Path_835" data-name="Path 835" d="M1.717,54.817a1.654,1.654,0,0,0-1.214.5,1.725,1.725,0,0,0,0,2.429,1.654,1.654,0,0,0,1.214.5,1.654,1.654,0,0,0,1.214-.5,1.725,1.725,0,0,0,0-2.429A1.653,1.653,0,0,0,1.717,54.817Z" transform="translate(-0.003 -54.817)" fill="#a5a4bf"/>
    <path id="Path_836" data-name="Path 836" d="M1.717,347.18a1.653,1.653,0,0,0-1.214.5,1.725,1.725,0,0,0,0,2.429,1.654,1.654,0,0,0,1.214.5,1.653,1.653,0,0,0,1.214-.5,1.725,1.725,0,0,0,0-2.429A1.653,1.653,0,0,0,1.717,347.18Z" transform="translate(-0.003 -338.037)" fill="#a5a4bf"/>
    <path id="Path_837" data-name="Path 837" d="M157.522,73.177a.275.275,0,0,0-.2-.085H146.464a.289.289,0,0,0-.286.286v1.714a.289.289,0,0,0,.286.286h10.857a.289.289,0,0,0,.286-.286V73.378A.275.275,0,0,0,157.522,73.177Z" transform="translate(-141.607 -72.52)" fill="#a5a4bf"/>
    <path id="Path_838" data-name="Path 838" d="M157.321,219.271H146.464a.29.29,0,0,0-.286.286v1.714a.29.29,0,0,0,.286.286h10.857a.29.29,0,0,0,.286-.286v-1.714a.29.29,0,0,0-.286-.286Z" transform="translate(-141.607 -214.128)" fill="#a5a4bf"/>
    <path id="Path_839" data-name="Path 839" d="M157.321,365.447H146.464a.29.29,0,0,0-.286.286v1.714a.289.289,0,0,0,.286.286h10.857a.289.289,0,0,0,.286-.286v-1.714a.29.29,0,0,0-.286-.286Z" transform="translate(-141.607 -355.733)" fill="#a5a4bf"/>
  </g>
</svg>
